<svg xmlns="http://www.w3.org/2000/svg" width="38" height="37" fill="none"><g fill="#95E1D3" clip-path="url(#a)"><path d="M18.898 5.528c-2.621 0-5.183.761-7.362 2.186a13.036 13.036 0 0 0-4.88 5.822 12.718 12.718 0 0 0-.755 7.495 12.89 12.89 0 0 0 3.627 6.642 13.342 13.342 0 0 0 6.784 3.55c2.57.5 5.235.244 7.656-.738a13.195 13.195 0 0 0 5.947-4.778 12.778 12.778 0 0 0 2.233-7.207 12.85 12.85 0 0 0-3.885-9.168 13.411 13.411 0 0 0-9.365-3.804Zm11.024 13.478h1.18a11.783 11.783 0 0 1-3.212 7.581l-.83-.813a.517.517 0 0 0-.366-.149.527.527 0 0 0-.366.149.505.505 0 0 0-.15.357.496.496 0 0 0 .15.358l.831.813a12.303 12.303 0 0 1-7.744 3.146V29.29a.5.5 0 0 0-.151-.357.522.522 0 0 0-.73 0 .5.5 0 0 0-.152.357v1.157a12.303 12.303 0 0 1-7.744-3.146l.83-.813a.505.505 0 0 0 .152-.358.496.496 0 0 0-.151-.357.517.517 0 0 0-.365-.149.527.527 0 0 0-.366.149l-.83.813a11.783 11.783 0 0 1-3.213-7.58h1.18a.522.522 0 0 0 .366-.149.5.5 0 0 0 0-.715.522.522 0 0 0-.365-.149H6.695a11.783 11.783 0 0 1 3.212-7.58l.831.813a.522.522 0 0 0 .73 0 .5.5 0 0 0 0-.716l-.83-.813a12.303 12.303 0 0 1 7.743-3.145v1.156a.5.5 0 0 0 .151.358.522.522 0 0 0 .731 0 .5.5 0 0 0 .151-.358V6.553a12.303 12.303 0 0 1 7.744 3.145l-.83.813a.504.504 0 0 0-.113.552.505.505 0 0 0 .28.274.527.527 0 0 0 .563-.11l.831-.813a11.784 11.784 0 0 1 3.213 7.58H29.92a.522.522 0 0 0-.366.149.5.5 0 0 0 0 .715.522.522 0 0 0 .366.148Z"/><path d="M24.766 17.994h-3.262a2.591 2.591 0 0 0-.729-1.332 2.682 2.682 0 0 0-1.36-.713v-5a.5.5 0 0 0-.152-.358.523.523 0 0 0-.73 0 .5.5 0 0 0-.152.357v5.001a2.68 2.68 0 0 0-1.267.623c-.357.317-.62.722-.76 1.173a2.55 2.55 0 0 0-.035 1.388c.117.457.358.874.699 1.208.34.333.767.57 1.234.684.467.114.957.102 1.418-.035.46-.137.874-.394 1.197-.743.323-.35.543-.779.637-1.24h3.262a.522.522 0 0 0 .366-.149.5.5 0 0 0 0-.715.522.522 0 0 0-.366-.149Zm-5.868 2.096a1.65 1.65 0 0 1-.902-.268 1.597 1.597 0 0 1-.599-.714 1.559 1.559 0 0 1 .352-1.732 1.656 1.656 0 0 1 1.77-.345c.297.12.55.324.73.586a1.567 1.567 0 0 1-.203 2.007 1.644 1.644 0 0 1-1.148.466Z"/><path d="M36.962 2.586 35.154.816a2.866 2.866 0 0 0-2.002-.811c-.751 0-1.472.292-2.003.811l-1.417 1.388a.505.505 0 0 0-.152.357.496.496 0 0 0 .152.358l1.34 1.312-1.987 1.946a16.376 16.376 0 0 0-10.187-3.54c-3.71 0-7.307 1.25-10.187 3.54L6.723 4.231l1.34-1.313a.505.505 0 0 0 .152-.357.496.496 0 0 0-.152-.358L6.646.816A2.866 2.866 0 0 0 4.643.005c-.75 0-1.471.291-2.002.81L.833 2.586a2.746 2.746 0 0 0-.829 1.961c0 .735.298 1.44.829 1.96L2.25 7.895a.517.517 0 0 0 .365.149.526.526 0 0 0 .366-.149l1.34-1.312L6.31 8.527a15.605 15.605 0 0 0-3.6 10.64 15.659 15.659 0 0 0 4.505 10.306l-2.546 5.595a1.348 1.348 0 0 0 .104 1.307c.128.192.302.35.508.459.205.109.435.166.669.166h1.293c.27 0 .536-.077.763-.222.228-.144.408-.35.518-.592l1.9-4.173a16.424 16.424 0 0 0 8.476 2.35c2.993 0 5.927-.814 8.476-2.35l1.898 4.173c.11.242.29.448.518.592.227.145.492.222.762.222h1.293c.234 0 .464-.057.67-.166.205-.11.38-.267.507-.46a1.355 1.355 0 0 0 .105-1.306l-2.546-5.595a15.659 15.659 0 0 0 4.505-10.305 15.604 15.604 0 0 0-3.601-10.64l1.988-1.947 1.34 1.313a.517.517 0 0 0 .366.148.526.526 0 0 0 .365-.148l1.417-1.388c.53-.52.829-1.225.829-1.96 0-.735-.298-1.44-.829-1.96ZM2.615 6.822l-1.05-1.03a1.745 1.745 0 0 1-.526-1.246c0-.467.19-.914.526-1.245l1.807-1.769c.337-.33.795-.515 1.272-.515.476 0 .934.185 1.271.515l1.053 1.029-4.353 4.26Zm2.437-.954.94-.92 1.935 1.894c-.326.294-.64.6-.94.92L5.052 5.868ZM7.58 35.774a.376.376 0 0 1-.337.214H5.949a.376.376 0 0 1-.31-.164.356.356 0 0 1-.027-.344l2.39-5.25c.49.435 1.008.84 1.548 1.214l-1.971 4.33Zm24.577.05a.362.362 0 0 1-.31.165h-1.293a.364.364 0 0 1-.337-.214l-1.97-4.33c.541-.374 1.058-.78 1.549-1.215l2.39 5.25a.351.351 0 0 1-.03.344h.001Zm-13.258-2.473c-3 0-5.934-.871-8.428-2.503a14.924 14.924 0 0 1-5.588-6.665 14.56 14.56 0 0 1-.863-8.58A14.757 14.757 0 0 1 8.17 7.999a15.274 15.274 0 0 1 7.768-4.064 15.474 15.474 0 0 1 8.765.845 15.106 15.106 0 0 1 6.808 5.47 14.63 14.63 0 0 1 2.557 8.25c-.005 3.937-1.604 7.712-4.448 10.496-2.844 2.785-6.7 4.35-10.722 4.355Zm11.91-25.59c-.3-.32-.613-.627-.94-.92l1.935-1.895.94.92-1.934 1.894Zm5.424-1.97-1.052 1.03-4.353-4.26 1.053-1.029c.338-.33.795-.515 1.272-.515s.934.185 1.272.515l1.806 1.77c.337.33.526.777.526 1.244 0 .467-.189.915-.526 1.246h.002Z"/></g><defs><clipPath id="a"><path fill="#fff" d="M0 0h37.795v37H0z"/></clipPath></defs></svg>