<svg xmlns="http://www.w3.org/2000/svg" width="37" height="37" fill="none"><g fill="#95E1D3" clip-path="url(#a)"><path d="M34.742 14.766h-6.505v20.066H26.07v-15.34h-6.505v15.34H17.4V15.338h-6.505v19.494h-2.13V24.023H2.257v10.809H0V37h37v-2.168h-2.258V14.766ZM6.594 26.191v2.168H4.427v-2.168h2.167Zm-2.167 8.641v-4.305h2.167v4.305H4.427ZM15.23 17.506v2.168h-2.166v-2.168h2.166Zm-2.166 17.326v-12.99h2.166v12.99h-2.166ZM23.9 21.66v2.168h-2.167V21.66h2.167Zm-2.167 13.172v-8.836h2.167v8.836h-2.167Zm10.839-17.898v2.168h-2.167v-2.168h2.167Zm-2.167 17.898V21.27h2.167v13.562h-2.167Z"/><path d="M30.51 0v2.168h2.788l-9.99 9.99-8.275-8.276L.008 18.908l1.534 1.533L15.033 6.949l8.276 8.276L34.83 3.702V6.5H37V0h-6.49Z"/></g><defs><clipPath id="a"><path fill="#fff" d="M0 0h37v37H0z"/></clipPath></defs></svg>