<svg xmlns="http://www.w3.org/2000/svg" width="37" height="37" fill="none"><path fill="#95E1D3" d="M13.567 15.417V1.85c0-1.048-.802-1.85-1.85-1.85H5.55C4.502 0 3.7.802 3.7 1.85v13.567c0 1.048.802 1.85 1.85 1.85h6.167c1.048 0 1.85-.802 1.85-1.85Zm-1.234-1.85h-7.4V3.7h7.4v9.867ZM5.55 1.233h6.167c.37 0 .616.247.616.617v.617h-7.4V1.85c0-.37.247-.617.617-.617Zm-.617 14.184V14.8h7.4v.617c0 .37-.246.616-.616.616H5.55c-.37 0-.617-.246-.617-.616Z"/><path fill="#95E1D3" d="M11.47 8.633 6.783 4.872v7.523l4.687-3.762ZM8.017 7.462l1.48 1.171-1.48 1.172V7.462ZM17.267 10.483c0-4.07 3.33-7.4 7.4-7.4 1.726 0 3.453.617 4.81 1.727L28.12 6.167c-2.405-1.912-5.858-1.542-7.77.863a5.507 5.507 0 0 0-1.233 3.453h1.233a4.29 4.29 0 0 1 4.317-4.316c.925 0 1.85.308 2.59.863L25.9 8.387a2.224 2.224 0 0 0-1.233-.37 2.474 2.474 0 0 0-2.467 2.466h1.233c0-.678.555-1.233 1.234-1.233.123 0 .184 0 .308.062l-.74.74.863.863.74-.74c0 .123.062.185.062.308 0 .679-.555 1.234-1.233 1.234v1.233a2.474 2.474 0 0 0 2.466-2.467c0-.431-.123-.863-.37-1.233l1.357-1.357c1.418 1.912 1.048 4.625-.863 6.044a4.357 4.357 0 0 1-2.59.863v1.233a5.527 5.527 0 0 0 4.316-9.003l1.295-1.295c2.652 3.083 2.282 7.77-.863 10.422-1.295 1.11-3.022 1.726-4.748 1.726v1.234a8.62 8.62 0 0 0 8.633-8.634c0-2.096-.74-4.07-2.097-5.673l1.11-1.11h2.837V2.467h-2.467V0H31.45v2.837l-1.11 1.11c-3.639-3.084-9.065-2.714-12.21.863-1.357 1.603-2.097 3.577-2.097 5.673h1.234ZM30.217 22.817H24.79L13.073 18.5h-1.356c-1.049 0-1.85.802-1.85 1.85v12.333c0 1.049.801 1.85 1.85 1.85h1.356L24.79 29.6h1.727v5.55c0 1.049.801 1.85 1.85 1.85 1.048 0 1.85-.801 1.85-1.85V29.6c1.048 0 1.85-.802 1.85-1.85v-3.083c0-1.049-.802-1.85-1.85-1.85Zm-16.65-2.837 10.483 3.885v4.687l-10.483 4.44V19.98ZM11.1 32.683V20.35c0-.37.247-.617.617-.617h.616V33.3h-.616c-.37 0-.617-.247-.617-.617Zm17.883 2.467c0 .37-.246.617-.616.617s-.617-.247-.617-.617V29.6h1.233v5.55Zm1.85-7.4c0 .37-.246.617-.616.617h-4.934V24.05h4.934c.37 0 .616.247.616.617v3.083ZM6.167 25.283h2.466v1.234H6.167v-1.234ZM6.356 20.795l.872-.872 1.832 1.832-.872.872-1.832-1.832ZM6.356 31.005l1.832-1.832.872.872-1.832 1.832-.872-.872Z"/><path fill="#95E1D3" d="M16.033 11.778v.617c0 3.7 3.022 6.722 6.722 6.722h.678v-7.4H16.65l-.617.061ZM22.2 12.95v4.933c-2.59-.246-4.625-2.343-4.872-4.933H22.2ZM14.8 1.85h3.7v1.233h-3.7V1.85ZM34.533 12.95v11.717c0 .37-.246.616-.616.616H33.3v1.234h.617c1.048 0 1.85-.802 1.85-1.85V12.95h-1.234ZM2.467 24.667V12.95H1.233v11.717c0 1.048.802 1.85 1.85 1.85h1.85v-1.234h-1.85c-.37 0-.616-.246-.616-.616Z"/></svg>