<svg xmlns="http://www.w3.org/2000/svg" width="37" height="37" fill="none"><g fill="#95E1D3" clip-path="url(#a)"><path d="M35.15.026H1.85A1.85 1.85 0 0 0 0 1.876v22.2a1.85 1.85 0 0 0 1.85 1.85h10.483a3.087 3.087 0 0 1 3.084 3.084 3.089 3.089 0 0 1-3.084 3.083c-.008 0-.015.005-.024.005a.558.558 0 0 0-.132.027.667.667 0 0 0-.1.028.658.658 0 0 0-.1.067.662.662 0 0 0-.09.07.657.657 0 0 0-.063.088.61.61 0 0 0-.066.117c0 .007-.009.012-.011.02l-1.233 3.7a.617.617 0 0 0 .586.811h14.8a.617.617 0 0 0 .585-.811l-1.234-3.7c0-.008-.008-.013-.01-.02a.609.609 0 0 0-.067-.116.634.634 0 0 0-.062-.089.663.663 0 0 0-.09-.07.652.652 0 0 0-.1-.067.672.672 0 0 0-.101-.028.564.564 0 0 0-.132-.027c-.009 0-.015-.005-.024-.005a3.089 3.089 0 0 1-3.083-3.083 3.087 3.087 0 0 1 3.083-3.084H35.15a1.85 1.85 0 0 0 1.85-1.85v-22.2a1.85 1.85 0 0 0-1.85-1.85ZM20.35 29.01a4.323 4.323 0 0 0 3.864 4.292l.83 2.491H11.956l.83-2.49a4.323 4.323 0 0 0 3.864-4.293 4.3 4.3 0 0 0-1.302-3.084h6.304a4.3 4.3 0 0 0-1.302 3.084Zm15.417-4.933c0 .34-.276.616-.617.616H1.85a.617.617 0 0 1-.617-.616v-1.85h34.534v1.85ZM1.233 20.993V1.876c0-.34.276-.616.617-.616h33.3c.34 0 .617.276.617.616v19.117H1.233Z"/><path d="m26.095 9.309-1.775-.593.836-1.674a.616.616 0 0 0-.116-.712l-1.744-1.744a.616.616 0 0 0-.711-.116l-1.675.837-.592-1.776a.617.617 0 0 0-.585-.421h-2.466c-.266 0-.501.17-.585.421l-.592 1.776-1.675-.837a.616.616 0 0 0-.711.116L11.96 6.33a.617.617 0 0 0-.116.712l.836 1.674-1.775.593a.617.617 0 0 0-.422.584v2.467c0 .265.17.5.422.584l1.775.592-.836 1.675a.617.617 0 0 0 .116.712l1.744 1.744a.617.617 0 0 0 .711.116l1.675-.837.592 1.775c.084.252.32.422.585.422h2.466c.266 0 .501-.17.585-.422l.592-1.775 1.675.837a.617.617 0 0 0 .711-.116l1.744-1.744a.617.617 0 0 0 .116-.712l-.836-1.675 1.775-.592a.616.616 0 0 0 .422-.584V9.893c0-.265-.17-.5-.422-.584Zm-.812 2.606-2.029.679a.617.617 0 0 0-.356.86l.957 1.912-1.116 1.115-1.912-.956a.617.617 0 0 0-.863.356l-.675 2.029H17.71l-.678-2.03a.617.617 0 0 0-.86-.355l-1.912.956-1.115-1.116.956-1.911a.617.617 0 0 0-.356-.86l-2.03-.679v-1.577l2.03-.679a.616.616 0 0 0 .356-.86l-.956-1.911 1.115-1.116 1.912.956a.616.616 0 0 0 .86-.356l.678-2.029h1.578l.678 2.03a.617.617 0 0 0 .863.355l1.912-.956 1.116 1.116-.957 1.911a.617.617 0 0 0 .357.86l2.029.679-.004 1.577Z"/><path d="M18.5 7.426a3.7 3.7 0 1 0 0 7.4 3.7 3.7 0 0 0 0-7.4Zm0 6.167a2.467 2.467 0 1 1 0-4.933 2.467 2.467 0 0 1 0 4.933Z"/></g><defs><clipPath id="a"><path fill="#fff" d="M0 0h37v37H0z"/></clipPath></defs></svg>