<svg xmlns="http://www.w3.org/2000/svg" width="37" height="37" fill="none"><g fill="#95E1D3" clip-path="url(#a)"><path d="M27.105 10.257a.728.728 0 0 0-.511-.212.727.727 0 0 0-.723.723c0 .19.077.376.212.51.134.135.32.212.51.212s.377-.077.512-.211a.729.729 0 0 0 .211-.511.728.728 0 0 0-.211-.511ZM10.84 20.379H5.059a.723.723 0 0 0-.723.723v5.78c0 .4.324.723.723.723h5.78c.4 0 .723-.323.723-.722v-5.781c0-.4-.323-.723-.722-.723Zm-.723 5.781H5.781v-4.336h4.336v4.336ZM36.554 15.159a.722.722 0 0 0-.788.156l-7.363 7.364h-.001l-8.584 8.585-4.503 4.502A.723.723 0 0 0 15.826 37h20.451a.723.723 0 0 0 .723-.723v-20.45a.723.723 0 0 0-.446-.668Zm-1 20.396H17.572l2.758-2.758.69.69a.72.72 0 0 0 1.021 0 .723.723 0 0 0 0-1.022l-.69-.69 1.84-1.84.69.69a.72.72 0 0 0 1.022 0 .723.723 0 0 0 0-1.022l-.69-.69 1.84-1.84.69.69a.72.72 0 0 0 1.021 0 .723.723 0 0 0 0-1.022l-.69-.69 1.84-1.839.69.69a.72.72 0 0 0 1.022 0 .723.723 0 0 0 0-1.022l-.69-.69 1.84-1.84.69.69a.72.72 0 0 0 1.021 0 .723.723 0 0 0 0-1.022l-.69-.69 2.759-2.757v17.984Z"/><path d="M32.94 23.882a.722.722 0 0 0-.787.156l-8.115 8.115a.723.723 0 0 0 .511 1.234h8.115a.723.723 0 0 0 .723-.723V24.55a.723.723 0 0 0-.447-.667Zm-.999 8.06h-5.647l5.647-5.648v5.647ZM33.463 10.787a.723.723 0 0 0-.76-.168l-4.934 1.807a.724.724 0 0 0-.262.168L26.12 13.98l-9.06-9.06a.723.723 0 0 0-1.022 0L5.133 15.826H2.467L16.55 1.745l7.727 7.727a.723.723 0 0 0 1.022-1.022L17.06.212a.723.723 0 0 0-1.022 0L.212 16.038a.723.723 0 0 0 .51 1.234h.723v19.006c0 .399.324.722.723.722h11.49a.723.723 0 1 0 0-1.445H2.89V17.272h2.541a.723.723 0 0 0 .511-.212L16.55 6.454l8.549 8.549L14.38 25.72v-6.497h5.059a.723.723 0 0 0 0-1.445h-5.782a.723.723 0 0 0-.722.722v8.383c0 .084.015.165.041.24l-.647.648a2.937 2.937 0 0 0 0 4.149 2.924 2.924 0 0 0 2.075.858c.75 0 1.502-.286 2.074-.858l6.095-6.094a.723.723 0 1 0-1.023-1.022l-4.617 4.617-2.105-2.105 13.203-13.204 2.106 2.106-5.046 5.045a.723.723 0 1 0 1.023 1.022l5.541-5.542a.722.722 0 0 0 .168-.262l1.807-4.935a.723.723 0 0 0-.168-.76Zm-17.55 19.656-.456.455a1.479 1.479 0 0 1-1.052.436c-.398 0-.772-.155-1.053-.436a1.478 1.478 0 0 1-.436-1.053c0-.397.155-.771.436-1.052l.455-.456 2.105 2.106Zm14.95-15.544-1.512-1.513 2.387-.874-.874 2.387Z"/><path d="M24.331 23.046a.728.728 0 0 0-.51-.212.728.728 0 0 0-.512.212.73.73 0 0 0-.212.51c0 .191.078.377.212.512a.727.727 0 0 0 1.022 0 .731.731 0 0 0 .212-.512.73.73 0 0 0-.212-.51ZM16.549 10.912a2.75 2.75 0 0 0-2.746 2.746 2.75 2.75 0 0 0 2.746 2.746 2.75 2.75 0 0 0 2.746-2.746 2.75 2.75 0 0 0-2.746-2.746Zm0 4.047c-.717 0-1.301-.583-1.301-1.3 0-.718.584-1.302 1.3-1.302.718 0 1.302.584 1.302 1.301 0 .718-.584 1.301-1.301 1.301Z"/></g><defs><clipPath id="a"><path fill="#fff" d="M0 0h37v37H0z"/></clipPath></defs></svg>