<svg xmlns="http://www.w3.org/2000/svg" width="37" height="37" fill="none"><path fill="#95E1D3" d="M5.32 26.524a.5.5 0 0 1-.5-.5V7.634a4.646 4.646 0 0 1 4.673-4.561h21.33a.5.5 0 0 1 0 1H9.493a3.65 3.65 0 0 0-3.674 3.573v18.378a.5.5 0 0 1-.5.5Z"/><path fill="#95E1D3" d="M29.771 12.423H26.65a.5.5 0 0 1 0-1h2.04a2.944 2.944 0 0 1-.15-2.396h-1.89a.5.5 0 1 1 0-1h2.681a.5.5 0 0 1 .417.776c-.107.164-1.014 1.647.336 2.73a.5.5 0 0 1-.313.89Z"/><path fill="#95E1D3" d="M26.65 30.32a.5.5 0 0 1-.5-.5V7.633a.5.5 0 0 1 1 0V29.82a.5.5 0 0 1-.5.5Z"/><path fill="#95E1D3" d="M4.297 33.927c-.822 0-1.618-.29-2.247-.82a4.316 4.316 0 0 1 2.06-7.577.489.489 0 0 1 .08-.006h19.075a.5.5 0 0 1 .08.993 3.316 3.316 0 0 0-1.58 5.819c.431.363.972.57 1.535.589h.093a2.7 2.7 0 0 0 1.13-.264 2.783 2.783 0 0 0 1.627-2.532.5.5 0 0 1 1 0 3.775 3.775 0 0 1-2.2 3.438c-.479.227-1 .348-1.53.355a.516.516 0 0 1-.057.003H4.344a.486.486 0 0 1-.047.002Zm-.064-7.403a3.317 3.317 0 0 0-1.538 5.818 2.5 2.5 0 0 0 1.559.584H20.921a4.322 4.322 0 0 1 .143-6.401l-16.831-.001ZM30.823 12.423H29.9a.5.5 0 0 1 0-1h.922a3.675 3.675 0 1 0-3.672-3.777.495.495 0 0 1-.702.445.5.5 0 0 1-.297-.47 4.676 4.676 0 1 1 4.672 4.8v.002ZM23.768 8.416H8.731a.5.5 0 1 1 0-1h15.037a.5.5 0 0 1 0 1ZM23.768 12.93H19.75a.5.5 0 0 1 0-1h4.018a.5.5 0 0 1 0 1ZM9.875 12.93H8.731a.5.5 0 0 1 0-1h1.144a.5.5 0 0 1 0 1ZM23.768 17.442h-3.81a.5.5 0 0 1 0-1h3.81a.5.5 0 0 1 0 1ZM9.303 17.442h-.572a.5.5 0 0 1 0-1h.572a.5.5 0 0 1 0 1ZM23.768 21.955h-.539a.5.5 0 0 1 0-1h.539a.5.5 0 0 1 0 1ZM15.479 21.955h-6.75a.5.5 0 0 1 0-1h6.75a.5.5 0 0 1 0 1ZM14.473 19.95a4.155 4.155 0 1 1 0-8.31 4.155 4.155 0 0 1 0 8.31Zm0-7.307a3.156 3.156 0 1 0 1.208.237 3.136 3.136 0 0 0-1.208-.239v.002Z"/><path fill="#95E1D3" d="M13.492 16.295a1.417 1.417 0 1 1-.001-2.833 1.417 1.417 0 0 1 0 2.833Zm0-1.833a.417.417 0 1 0-.001.835.417.417 0 0 0 0-.835ZM19.953 23.503a.5.5 0 0 1-.354-.146l-3.893-3.893a.5.5 0 1 1 .707-.707l3.737 3.734.964-.055.056-.965-.081-.081-.818-.093a.5.5 0 0 1-.44-.441l-.069-.596-.594-.067a.5.5 0 0 1-.441-.44l-.093-.819-1.2-1.2a.5.5 0 0 1 .707-.707l1.322 1.323c.08.08.13.185.142.297l.069.596.595.067a.5.5 0 0 1 .44.44l.068.597.597.068a.5.5 0 0 1 .297.143l.363.364a.502.502 0 0 1 .146.382l-.096 1.634a.5.5 0 0 1-.47.47l-1.633.093-.028.002Z"/></svg>